<?xml version="1.0" encoding="UTF-8"?>
<svg id="Layer_1" xmlns="http://www.w3.org/2000/svg" version="1.1" viewBox="0 0 967.51 1398.14">
  <!-- Generator: Adobe Illustrator 29.3.1, SVG Export Plug-In . SVG Version: 2.1.0 Build 151)  -->
  <defs>
    <style>
      .st0 {
        fill: #fdefd9;
      }
    </style>
  </defs>
  <path class="st0" d="M799.36,808.29l41.53,42.45c54.23,58.99,155.39,184.23,68.95,256.82-54.07,45.41-115.02,8.72-159.46-29.95l.03,170.43c-1.74,30.25-5.29,60.07-18.18,87.76-36.89,79.24-148.33,86.08-184.04,2.32-12.05-28.26-12.24-59.3-11.82-89.62h-105c.45,30.2.34,61.47-11.82,89.61-35.89,83-147.95,77.32-184.35-2-16.45-35.83-16.63-69.66-17.79-108.14-1.43-47.91-2.42-96.87-1.09-144.92.05-1.69.28-2.95,1.05-4.43l-27.68,20.79c-48.1,35.41-113.74,45.33-149.73-11.89-35.69-56.74-.98-121.19,32.6-169.12,28.2-40.27,62.09-76.04,96.81-110.61-50.23-5.04-99.69-23.56-129.81-65.65C.8,687.99,2.84,609.38,1.41,545.41-.85,443.66-.74,341.13,4.36,239.64c3.43-68.3,4.63-151.94,65.7-196.18C121.33,6.33,215.14,7.06,276.91,4.35c142.97-6.27,287.12-5.6,429.97.94,117.22,5.37,226.53,2.76,250.18,143.74,9.56,57.03,8.31,121.62,9.27,179.61,1.27,76.07,1.86,152.69,0,228.76-1.55,63.29-1.04,138.74-42,190.88-30.23,38.48-77.82,54.07-124.97,60.01Z"/>
  <path d="M924.33,748.28c40.96-52.14,40.45-127.59,42-190.88,1.86-76.07,1.27-152.69,0-228.76-.96-57.99.29-122.58-9.27-179.61C933.41,8.05,824.1,10.66,706.88,5.29c-142.85-6.54-287-7.21-429.97-.94-61.77,2.71-155.58,1.98-206.85,39.11C8.99,87.7,7.79,171.34,4.36,239.64-.74,341.13-.85,443.66,1.41,545.41c1.43,63.97-.61,142.58,38.15,196.73,30.12,42.09,79.58,60.61,129.81,65.65-34.72,34.57-68.61,70.34-96.81,110.61-33.58,47.93-68.29,112.38-32.6,169.12,35.99,57.22,101.63,47.3,149.73,11.89l27.68-20.79c-.77,1.48-1,2.74-1.05,4.43-1.33,48.05-.34,97.01,1.09,144.92,1.16,38.48,1.34,72.31,17.79,108.14,36.4,79.32,148.46,85,184.35,2,12.16-28.14,12.27-59.41,11.82-89.61h105c-.42,30.32-.23,61.36,11.82,89.62,35.71,83.76,147.15,76.92,184.04-2.32,12.89-27.69,16.44-57.51,18.18-87.76l-.03-170.43c44.44,38.67,105.39,75.36,159.46,29.95,86.44-72.59-14.72-197.83-68.95-256.82l-41.53-42.45c47.15-5.94,94.74-21.53,124.97-60.01ZM867.79,962.77c16.26,26.52,41.17,70.53,19.41,100.17-29.65,40.39-86.42-1.97-112.84-25.79-3.88-3.5-21.25-19.83-23.04-22.95-.56-.97-1.13-1.79-1-3-1.6-26.19,2.3-55.18.09-81.03-1.73-20.15-29.14-24.51-40.69-12.11-1.72,1.84-4.37,7.1-4.91,9.58-5.34,104.72,2.17,210.59-1.39,315.41-1.33,39.06-8.12,101.49-57.82,107.1-48.46,5.47-61.4-35.14-63.27-75.13-.83-17.91,2.58-43.2-.2-59.77-1.46-8.76-9.6-15.16-18.27-15.71l-160.03-.05c-9.02.44-17.15,7.63-18.37,16.61-2.03,14.87.57,35.2-.05,50.92-1.55,39.8-10.35,87.95-61.52,83.39-48.59-4.32-57.98-59.1-59.57-98.37-4.25-105.24,3.26-213.34.09-318.88.14-27.21-43.44-29.62-46.95-3.87-1.92,14.1.2,30.84-1.13,44.84l-.17,38.8c-12.08,15.25-27.2,28.57-42.9,40.08-22.79,16.72-57.87,39.89-84.9,18.11-39.8-32.07,3.62-98.7,25.2-129.74,32.66-46.99,75.05-88.85,119.52-124.39,13.55-.06,27.2,2.11,40.75,2.83,104.86,5.56,210.87,4.64,316,2.91,49.41-.81,98.55-1.34,147.83-5.73,49.49,41.31,96.31,90.6,130.13,145.77ZM874.85,729.81c-44.16,38.46-156.45,41.39-214.02,43.95-109.58,4.88-221.19,4.87-330.92,1-60.56-2.13-176.85-3.43-226.85-37.12-51.79-34.9-50.28-112.36-52.65-168.24-4.76-112.35-3.19-225.59,2.95-337.75,2.27-41.49,1.73-89.21,24.6-125.33,32.99-52.09,96.88-50.41,151.9-53.06,59.01-2.83,118.2-4.06,177.31-4.69,105.87-1.13,210.22.88,315.66,5.74,34.56,1.6,70.65.97,104.58,8.42,89.55,19.68,84.93,113.92,87.92,186.96,4.41,107.68,6.62,216.75,2,324.7-2.12,49.72-1.96,120.11-42.48,155.42Z"/>
  <g>
    <path d="M577.92,600c21.77.2,30.11,25.67,17.3,42.06-25.05,32.08-85.27,48.96-124.52,46.54-27.92-1.72-78.33-19.36-94.89-43.08-11.45-16.39-1.12-39.42,19.98-37.95,11.74.82,16.51,9.58,25.79,15.2,37.33,22.6,90.69,20.09,125.98-5.35,10.13-7.3,16.29-17.55,30.36-17.42Z"/>
    <path d="M315.81,431.79c38.56-.47,51.59,29.47,42.82,63.57-9.61,37.4-73.75,37.27-83.77-.21-8.85-33.1,3.82-62.91,40.95-63.36Z"/>
    <path d="M649.92,431.79c38.56-.47,51.59,29.47,42.82,63.57-9.61,37.4-73.75,37.27-83.77-.21-8.85-33.1,3.82-62.91,40.95-63.36Z"/>
  </g>
</svg>